<svg xmlns="http://www.w3.org/2000/svg" width="71" height="70" fill="none"><circle cx="35.5" cy="35" r="34.5" fill="#fff" stroke="#80878F"/><path fill="#26A4E5" fill-rule="evenodd" d="M48.462 20.383a2.5 2.5 0 0 1 3.436 2.71l-3.78 22.929c-.366 2.211-2.793 3.48-4.821 2.378-1.697-.922-4.217-2.342-6.484-3.823-1.133-.742-4.605-3.117-4.178-4.807.367-1.445 6.2-6.875 9.533-10.103 1.309-1.269.712-2-.833-.834-3.838 2.897-9.997 7.302-12.033 8.542-1.797 1.093-2.734 1.28-3.854 1.093-2.043-.34-3.938-.866-5.485-1.508-2.09-.867-1.988-3.74-.001-4.577l28.5-12Z" clip-rule="evenodd"/></svg>