<svg xmlns="http://www.w3.org/2000/svg" width="71" height="70" fill="none"><circle cx="35.5" cy="35" r="34.5" fill="#fff" stroke="#80878F"/><path fill="#0077FE" d="M51.172 45.634H47.37c-1.438 0-1.872-1.165-4.45-3.745-2.253-2.172-3.205-2.442-3.775-2.442-.788 0-1.003.217-1.003 1.302v3.42c0 .925-.3 1.467-2.717 1.467a14.834 14.834 0 0 1-11.592-6.95 30.3 30.3 0 0 1-6-12.597c0-.57.217-1.087 1.304-1.087h3.8c.976 0 1.328.435 1.711 1.44 1.845 5.43 4.994 10.154 6.272 10.154.49 0 .703-.217.703-1.439v-5.593c-.161-2.552-1.516-2.767-1.516-3.69a.939.939 0 0 1 .975-.872h5.973c.817 0 1.087.407 1.087 1.384v7.55c0 .815.35 1.085.596 1.085.49 0 .867-.27 1.765-1.167a31.265 31.265 0 0 0 4.67-7.767 1.637 1.637 0 0 1 1.655-1.083h3.802c1.14 0 1.382.57 1.14 1.383a47.441 47.441 0 0 1-5.103 8.77c-.41.625-.574.95 0 1.684.376.57 1.71 1.683 2.605 2.741a16.921 16.921 0 0 1 3.203 4.45c.327 1.06-.218 1.602-1.303 1.602Z"/></svg>